<svg id="Layer_1" enable-background="new 0 0 512 512" height="512" viewBox="0 0 512 512" width="512" xmlns="http://www.w3.org/2000/svg"><g><g clip-rule="evenodd" fill-rule="evenodd"><path d="m86.393 239.425c11.805 56.388 126.868 68.565 169.607 68.565 42.738 0 157.802-12.178 169.609-68.566-17.902-60.43-52.747-136.16-81.846-149.023-36.018-15.922-50.093 16.381-87.763 16.381-37.671 0-51.746-32.303-87.763-16.381-29.099 12.863-63.944 88.593-81.844 149.024z" fill="#c68a86"/><path d="m256 307.99c-42.738 0-157.802-12.178-169.609-68.566-1.611 5.438-3.085 10.751-4.404 15.884-2.168 8.431-3.921 16.374-5.187 23.576-12.708 72.339 129.535 87.106 179.2 87.106s191.908-14.767 179.2-87.105c-1.265-7.203-3.019-15.146-5.186-23.577-1.32-5.133-2.794-10.447-4.405-15.884-11.808 56.389-126.871 68.566-169.609 68.566z" fill="#ffcd69"/><path d="m256 365.99c-49.665 0-191.908-14.767-179.2-87.105 1.265-7.203 3.019-15.145 5.186-23.576-46.094 18.752-71.986 44.175-71.986 70.684 0 55.228 110.138 100 246 100s246-44.772 246-100c0-26.509-25.893-51.933-71.986-70.684 2.168 8.431 3.921 16.374 5.186 23.577 12.708 72.337-129.536 87.104-179.2 87.104z" fill="#c68a86"/></g><g><path d="m438.404 247.987c-16.716-62.029-54.552-150.797-90.599-166.732-24.942-11.024-42.179-2.413-57.387 5.186-10.643 5.317-20.695 10.341-34.418 10.341s-23.775-5.023-34.418-10.342c-15.207-7.601-32.443-16.21-57.387-5.186-23.653 10.456-45.856 50.695-60.317 82.611-12.151 26.817-23.061 57.354-30.291 84.125-47.462 20.343-73.587 48.002-73.587 78.003 0 31.051 27.802 59.453 78.286 79.975 47.631 19.362 110.744 30.025 177.714 30.025 66.969 0 130.083-10.663 177.714-30.025 50.483-20.522 78.286-48.924 78.286-79.975 0-30.004-26.128-57.664-73.596-78.006zm-266.124-148.439c5.711-2.525 10.593-3.583 15.146-3.583 8.471 0 15.805 3.664 25.214 8.366 11.68 5.836 24.917 12.451 43.359 12.451s31.68-6.615 43.36-12.451c14.467-7.23 24.024-12.004 40.36-4.783 23.347 10.321 57.312 79.536 75.566 140-3.88 14.031-16.152 24.695-31.705 32.769-8.042-19.405-16.971-59.516-16.922-84.706.011-5.523-4.458-10.009-9.98-10.02-.007 0-.014 0-.02 0-5.514 0-9.989 4.465-10 9.98-.052 26.848 8.745 69.337 18.558 92.686-23.58 8.547-49.733 12.81-65.453 14.764-5.48.682-9.371 5.677-8.69 11.157.629 5.063 4.938 8.768 9.911 8.768.411 0 .827-.025 1.246-.077 36.504-4.537 94.052-16.518 120.388-47.766 1.051 4.649 1.97 9.169 2.733 13.513 2.02 11.492-.682 21.465-8.257 30.486-12.764 15.202-39.229 27.519-76.533 35.62-31.468 6.833-64.314 9.269-84.561 9.269-20.246 0-53.091-2.435-84.56-9.269-37.305-8.101-63.77-20.418-76.534-35.619-7.575-9.022-10.276-18.995-8.257-30.487.763-4.344 1.682-8.864 2.733-13.513 26.334 31.247 83.877 43.228 120.38 47.765.419.052.834.077 1.246.077 4.973 0 9.282-3.706 9.911-8.768.681-5.48-3.21-10.476-8.69-11.157-15.72-1.954-41.869-6.217-65.446-14.763 9.813-23.348 18.61-65.837 18.558-92.686-.011-5.517-4.485-9.98-10-9.98-.006 0-.013 0-.02 0-5.523.011-9.992 4.496-9.981 10.02.049 25.192-8.881 65.302-16.922 84.706-15.554-8.074-27.826-18.739-31.705-32.771 18.255-60.464 52.219-129.678 75.567-139.998zm253.903 287.892c-45.296 18.412-105.735 28.553-170.183 28.553s-124.887-10.141-170.182-28.553c-41.828-17.004-65.818-39.4-65.818-61.447 0-18.574 17.201-37.526 47.763-53.203-.287 1.477-.562 2.938-.812 4.365-3.062 17.426 1.191 33.175 12.639 46.809 15.862 18.892 45.337 33.125 87.606 42.304 33.017 7.169 67.522 9.723 88.804 9.723 21.284 0 55.79-2.555 88.804-9.724 42.27-9.179 71.744-23.411 87.606-42.303 11.448-13.634 15.7-29.383 12.64-46.809-.249-1.417-.524-2.88-.813-4.365 30.562 15.677 47.763 34.629 47.763 53.203 0 22.047-23.989 44.443-65.817 61.447z"/><path d="m256 317.99c5.523 0 10-4.478 10-10s-4.477-10-10-10h-.007c-5.523 0-9.996 4.478-9.996 10s4.48 10 10.003 10z"/></g></g></svg>