<?xml version="1.0" encoding="UTF-8" standalone="no"?><!DOCTYPE svg PUBLIC "-//W3C//DTD SVG 1.1//EN" "http://www.w3.org/Graphics/SVG/1.1/DTD/svg11.dtd"><svg width="100%" height="100%" viewBox="0 0 159 14" version="1.1" xmlns="http://www.w3.org/2000/svg" xmlns:xlink="http://www.w3.org/1999/xlink" xml:space="preserve" xmlns:serif="http://www.serif.com/" style="fill-rule:evenodd;clip-rule:evenodd;stroke-linejoin:round;stroke-miterlimit:2;"><path d="M5.814,12.169c1.636,0 3.098,-0.555 4.084,-1.634l-0.747,-0.747c-0.906,0.937 -2.018,1.335 -3.29,1.335c-2.685,0 -4.703,-1.971 -4.703,-4.608c0,-2.638 2.018,-4.611 4.703,-4.611c1.272,0 2.384,0.399 3.29,1.321l0.747,-0.746c-0.986,-1.082 -2.448,-1.621 -4.068,-1.621c-3.353,0 -5.83,2.399 -5.83,5.657c0,3.257 2.477,5.654 5.814,5.654Zm118.286,0c2.846,0 4.147,-1.396 4.147,-3.033c0,-4.053 -6.849,-2.209 -6.849,-5.261c0,-1.112 0.906,-2.018 2.941,-2.018c0.985,0 2.098,0.302 3.051,0.922l0.397,-0.938c-0.889,-0.619 -2.192,-0.983 -3.448,-0.983c-2.83,0 -4.099,1.412 -4.099,3.049c0,4.116 6.849,2.241 6.849,5.293c0,1.096 -0.906,1.97 -2.989,1.97c-1.462,0 -2.876,-0.572 -3.67,-1.351l-0.46,0.906c0.825,0.858 2.461,1.444 4.13,1.444Zm-47.876,0c3.337,0 5.83,-2.397 5.83,-5.655c0,-3.259 -2.493,-5.656 -5.83,-5.656c-3.37,0 -5.847,2.413 -5.847,5.656c0,3.242 2.477,5.655 5.847,5.655Zm16.095,-10.201l-6.451,0l0,4.372l5.752,0l0,1.015l-5.752,0l0,4.719l-1.174,0l0,-11.121l7.625,0l0,1.015Zm-35.435,10.106l-1.173,0l0,-11.121l4.162,0c2.829,0 4.543,1.428 4.543,3.813c0,1.748 -0.92,2.972 -2.541,3.495l2.716,3.813l-1.285,0l-2.543,-3.575c-0.286,0.032 -0.572,0.048 -0.89,0.048l-2.989,0l0,3.527Zm43.206,0l-1.174,0l0,-11.121l4.162,0c2.829,0 4.543,1.428 4.543,3.813c0,1.748 -0.92,2.972 -2.54,3.495l2.715,3.813l-1.285,0l-2.543,-3.575c-0.286,0.032 -0.572,0.048 -0.89,0.048l-2.988,0l0,3.527Zm-56.887,-10.106l-3.909,0l0,10.106l-1.174,0l0,-10.106l-3.909,0l0,-1.015l8.992,0l0,1.015Zm-18.989,10.106l-1.173,0l0,-11.121l0.967,0l7.168,9.024l0,-9.024l1.158,0l0,11.121l-0.967,0l-7.153,-9.024l0,9.024Zm118.397,-1.015l6.229,0l0,1.015l-7.403,0l0,-11.121l1.174,0l0,10.106Zm9.36,0l6.229,0l0,1.015l-7.403,0l0,-11.121l1.174,0l0,10.106Zm-13.539,-9.091l-6.451,0l0,3.959l5.752,0l0,0.999l-5.752,0l0,4.133l6.69,0l0,1.015l-7.864,0l0,-11.121l7.625,0l0,1.015Zm-118.397,0l-6.451,0l0,3.959l5.752,0l0,0.999l-5.752,0l0,4.133l6.69,0l0,1.015l-7.864,0l0,-11.121l7.625,0l0,1.015Zm32.67,0l-6.451,0l0,3.959l5.752,0l0,0.999l-5.752,0l0,4.133l6.69,0l0,1.015l-7.864,0l0,-11.121l7.625,0l0,1.015Zm65.324,0l-6.451,0l0,3.959l5.752,0l0,0.999l-5.752,0l0,4.133l6.69,0l0,1.015l-7.864,0l0,-11.121l7.625,0l0,1.015Zm-41.805,9.155c-2.686,0 -4.689,-1.955 -4.689,-4.609c0,-2.655 2.003,-4.61 4.689,-4.61c2.67,0 4.656,1.955 4.656,4.61c0,2.654 -1.986,4.609 -4.656,4.609Zm0.067,-5.412l1.491,-1.491l0.803,0.803l-1.491,1.491l1.491,1.49l-0.803,0.803l-1.491,-1.491l-1.491,1.491l-0.803,-0.803l1.491,-1.49l-1.491,-1.491l0.803,-0.803l1.491,1.491Zm-16.45,-3.743l-2.957,0l0,5.579l2.957,0c2.225,0 3.401,-1.033 3.401,-2.781c0,-1.781 -1.176,-2.798 -3.401,-2.798Zm43.205,0l-2.956,0l0,5.579l2.956,0c2.225,0 3.402,-1.033 3.402,-2.781c0,-1.781 -1.177,-2.798 -3.402,-2.798Z" style="fill-rule:nonzero;"/></svg>