<svg id="Capa_1" enable-background="new 0 0 512.007 512.007" height="512" viewBox="0 0 512.007 512.007" width="512" xmlns="http://www.w3.org/2000/svg"><g><path d="m511.209 324.51-91-268.323-58.407 148.968 52.331 153.993c2.709 7.974 11.449 12.139 19.333 9.269l68.669-24.993c7.662-2.79 11.693-11.191 9.074-18.914z" fill="#149084"/><path d="m91.799 56.186-91 268.323c-2.62 7.723 1.412 16.124 9.075 18.913l68.669 24.993c7.89 2.872 16.623-1.298 19.332-9.267l50.997-149.989z" fill="#26bfa6"/><g><path d="m316.004 31.004c0 33.14-26.86 60-60 60-33.13 0-59.99-26.85-60-59.98 10.68-10.7 13.94-13.96 14.78-14.8.03-.03.2-.2.22-.22h90z" fill="#26bfa6"/><path d="m316.004 31.004c0 33.14-26.86 60-60 60v-75h45z" fill="#149084"/><path d="m420.554 64.644-17.94 71.76-23.11 35.35 11.5 15.57v48.43l-9.5 29 9.5 12.57v203.68c0 8.28-6.72 15-15 15h-240c-8.28 0-15-6.72-15-15v-203.68l7.25-14.32-7.25-27.25v-23.26l-5.99-29.95 8.99-10.54-18.3-36-14.41-72.06c-1.48-7.42 2.79-14.78 9.97-17.17l79.74-26.58 15 10.83c.01 33.13 26.87 59.98 60 59.98 33.14 0 60-26.86 60-60l15-10.81 79.74 26.58c7.44 2.48 11.71 10.26 9.81 17.87z" fill="#65d6a9"/><path d="m420.554 64.644-17.94 71.76-23.11 35.35 11.5 15.57v48.43l-9.5 29 9.5 12.57v203.68c0 8.28-6.72 15-15 15h-120v-405c33.14 0 60-26.86 60-60l15-10.81 79.74 26.58c7.44 2.48 11.71 10.26 9.81 17.87z" fill="#26bfa6"/></g><g><path d="m331.004 20.194v10.81c0 41.36-33.65 75-75 75s-75-33.64-75-75v-10.81l10.26-3.42c1.53-.51 3.13-.77 4.74-.77h15v15c0 24.81 20.19 45 45 45s45-20.19 45-45v-15h15c1.61 0 3.21.26 4.74.77z" fill="#fff2fb"/></g><path d="m331.004 20.194v10.81c0 41.36-33.65 75-75 75v-30c24.81 0 45-20.19 45-45v-15h15c1.61 0 3.21.26 4.74.77z" fill="#ffdfea"/><g><path d="m369.114 165.684c-7.88-6.61-17.72-29.68-38.11-29.68-19.67 0-29.39 21.35-37.5 29.14-8.13-7.81-17.81-29.14-37.5-29.14-19.67 0-29.39 21.35-37.5 29.14-8.13-7.81-17.81-29.14-37.5-29.14-20.38 0-30.24 23.08-38.11 29.68-7.18-3.01-20.15-17.47-24.97-23.78-3.01-3.95-7.61-5.99-12.22-5.9l9.31 46.54c10.55 9.15 19.73 13.46 28.49 13.46 19.67 0 29.39-21.35 37.5-29.14 8.13 7.81 17.81 29.14 37.5 29.14 19.67 0 29.39-21.35 37.5-29.14 8.13 7.81 17.81 29.14 37.5 29.14 19.67 0 29.39-21.35 37.5-29.14 8.13 7.81 17.81 29.14 37.5 29.14 7.06 0 14.39-2.8 22.5-8.68v-4.47l11.61-46.45c-10.74 2.46-19.41 23.37-33.5 29.28z" fill="#fff2fb"/></g><g><path d="m369.114 255.684c-7.88-6.61-17.72-29.68-38.11-29.68-19.67 0-29.39 21.35-37.5 29.14-8.13-7.81-17.81-29.14-37.5-29.14-19.67 0-29.39 21.35-37.5 29.14-8.13-7.81-17.81-29.14-37.5-29.14-20.38 0-30.24 23.08-38.11 29.68-6.28-2.63-17.26-14.37-21.89-19.93v41.57c8.11 5.88 15.44 8.68 22.5 8.68 19.67 0 29.39-21.35 37.5-29.14 8.13 7.81 17.81 29.14 37.5 29.14 19.67 0 29.39-21.35 37.5-29.14 8.13 7.81 17.81 29.14 37.5 29.14 19.67 0 29.39-21.35 37.5-29.14 8.13 7.81 17.81 29.14 37.5 29.14 7.06 0 14.39-2.8 22.5-8.68v-41.57c-7.76 9.31-17.24 17.98-21.89 19.93z" fill="#fff2fb"/></g><g fill="#ffdfea"><path d="m391.004 235.754v41.57c-8.11 5.88-15.44 8.68-22.5 8.68-19.69 0-29.37-21.33-37.5-29.14-8.11 7.79-17.83 29.14-37.5 29.14-19.69 0-29.37-21.33-37.5-29.14v-30.86c19.69 0 29.37 21.33 37.5 29.14 8.11-7.79 17.83-29.14 37.5-29.14 20.39 0 30.23 23.07 38.11 29.68 4.65-1.95 14.13-10.62 21.89-19.93z"/><path d="m402.614 136.404-11.61 46.45v4.47c-8.11 5.88-15.44 8.68-22.5 8.68-19.69 0-29.37-21.33-37.5-29.14-8.11 7.79-17.83 29.14-37.5 29.14-19.69 0-29.37-21.33-37.5-29.14v-30.86c19.69 0 29.37 21.33 37.5 29.14 8.11-7.79 17.83-29.14 37.5-29.14 20.39 0 30.23 23.07 38.11 29.68 14.09-5.91 22.76-26.82 33.5-29.28z"/></g></g></svg>